<svg width="59" height="59" viewBox="0 0 59 59" fill="none" xmlns="http://www.w3.org/2000/svg">
<path d="M29.5 15.9583V32.2083" stroke="#FDDC2B" stroke-width="3" stroke-linecap="round"/>
<path d="M29.5013 43.0417C30.9971 43.0417 32.2096 41.8291 32.2096 40.3333C32.2096 38.8376 30.9971 37.625 29.5013 37.625C28.0055 37.625 26.793 38.8376 26.793 40.3333C26.793 41.8291 28.0055 43.0417 29.5013 43.0417Z" fill="#FDDC2B"/>
<path d="M15.9587 6.04041C20.074 3.65952 24.7459 2.40933 29.5003 2.41666C44.4584 2.41666 56.5837 14.5419 56.5837 29.5C56.5837 44.4581 44.4584 56.5833 29.5003 56.5833C14.5422 56.5833 2.41699 44.4581 2.41699 29.5C2.41699 24.5681 3.73595 19.9396 6.04074 15.9583" stroke="#FDDC2B" stroke-width="3" stroke-linecap="round"/>
</svg>
