<svg width="8" height="8" viewBox="0 0 8 8" fill="none" xmlns="http://www.w3.org/2000/svg">
<path d="M0.96934 0.969971C1.10997 0.829521 1.30059 0.750631 1.49934 0.750631C1.69809 0.750631 1.88871 0.829521 2.02934 0.969971L3.99934 2.93997L5.96934 0.969971C6.038 0.896284 6.1208 0.837182 6.2128 0.79619C6.3048 0.755198 6.40412 0.733156 6.50482 0.731379C6.60552 0.729602 6.70555 0.748127 6.79894 0.785848C6.89233 0.823569 6.97716 0.879714 7.04838 0.950933C7.1196 1.02215 7.17574 1.10698 7.21346 1.20037C7.25118 1.29376 7.26971 1.39379 7.26793 1.49449C7.26616 1.5952 7.24411 1.69451 7.20312 1.78651C7.16213 1.87851 7.10303 1.96131 7.02934 2.02997L5.05934 3.99997L7.02934 5.96997C7.16182 6.11215 7.23394 6.30019 7.23052 6.49449C7.22709 6.68879 7.14837 6.87418 7.01096 7.01159C6.87355 7.14901 6.68816 7.22772 6.49386 7.23115C6.29956 7.23457 6.11152 7.16245 5.96934 7.02997L3.99934 5.05997L2.02934 7.02997C1.88716 7.16245 1.69912 7.23457 1.50482 7.23115C1.31052 7.22772 1.12513 7.14901 0.987719 7.01159C0.850306 6.87418 0.771593 6.68879 0.768165 6.49449C0.764736 6.30019 0.83686 6.11215 0.96934 5.96997L2.93934 3.99997L0.96934 2.02997C0.82889 1.88935 0.75 1.69872 0.75 1.49997C0.75 1.30122 0.82889 1.1106 0.96934 0.969971Z" fill="black"/>
</svg>
