<svg width="46" height="60" viewBox="0 0 46 60" fill="none" xmlns="http://www.w3.org/2000/svg">
<path d="M42.17 60H3.99168C1.87593 60 0.162109 58.2885 0.162109 56.1756V44.434C0.162109 42.3211 1.87593 40.6096 3.99168 40.6096H42.1677C44.2835 40.6096 45.9973 42.3211 45.9973 44.434V56.1756C45.9995 58.2885 44.2857 60 42.17 60Z" fill="black"/>
<path d="M0.00439697 27.4406C0.00439697 25.8306 -0.00463504 24.2205 0.00665497 22.6105C0.065363 13.7597 5.49811 5.52688 13.6156 1.96179C15.7201 1.03726 17.9058 0.394592 20.1887 0.151056C26.703 -0.543472 32.549 1.12069 37.6137 5.29913C41.4229 8.44255 43.927 12.4429 45.1825 17.2166C45.6409 18.9574 45.887 20.7321 45.8915 22.5315C45.9028 25.9478 45.9005 29.3663 45.8938 32.7826C45.8915 34.4648 44.6361 35.8967 43.0306 36.0681C41.2423 36.2598 39.6797 35.1413 39.3343 33.4072C39.2778 33.1254 39.2643 32.83 39.2643 32.5413C39.2598 29.3844 39.2575 26.2252 39.262 23.0682C39.2643 21.6634 38.6501 20.6261 37.3879 20.0195C35.4776 19.1017 33.1609 20.3487 32.8583 22.4346C32.8244 22.6691 32.8041 22.9081 32.8041 23.1449C32.7996 26.3334 32.8019 29.5219 32.8019 32.7104C32.8019 34.4062 31.7045 35.7749 30.0313 36.041C27.7372 36.4063 26.1972 34.5618 26.1995 32.9111C26.2017 29.6505 26.1995 26.3875 26.1972 23.1269C26.195 21.5213 25.2895 20.2653 23.8353 19.8436C21.9251 19.2867 19.938 20.6193 19.7529 22.5857C19.7235 22.9059 19.7055 23.2283 19.7055 23.5485C19.7009 26.6739 19.7077 29.8015 19.6964 32.9269C19.6897 34.6181 18.2039 36.0275 16.5059 36.0861C14.9862 36.138 13.4169 35.0624 13.1234 33.2922C13.094 33.1096 13.0985 32.9202 13.0985 32.733C13.0963 29.5039 13.0985 26.2725 13.0963 23.0434C13.0963 21.4063 12.0531 20.0804 10.4409 19.7827C8.28223 19.3859 6.67679 21.0545 6.65873 22.7097C6.6226 26.0132 6.64292 29.3145 6.6384 32.618C6.63615 33.8424 6.171 34.8414 5.14361 35.5359C3.24237 36.8212 0.591477 35.7727 0.085685 33.538C0.022461 33.2584 0.00891297 32.9607 0.00891297 32.6721C0.00213897 30.9268 0.00665497 29.1814 0.00665497 27.4383C0.00213897 27.4406 0.00213897 27.4406 0.00439697 27.4406Z" fill="black"/>
<path d="M6.54818 45.3495C7.67944 45.3495 8.82425 45.6223 9.64164 46.0846V47.9901C8.8378 47.4173 7.76073 47.1332 6.69721 47.1467C5.66079 47.1602 5.14371 47.4466 5.14371 48.0306C5.14371 49.6768 10.3642 49.0657 10.3642 52.4549C10.3642 54.5926 8.64587 55.2578 6.64302 55.2578C5.32209 55.2578 4.09373 54.9444 3.11376 54.4009V52.4549C4.20438 53.1765 5.40338 53.4628 6.49399 53.4628C7.59815 53.4628 8.28007 53.2306 8.28007 52.5518C8.28007 50.7682 3.05957 51.4356 3.05957 48.06C3.05957 46.2199 4.66727 45.3495 6.54818 45.3495Z" fill="white"/>
<path d="M24.8266 45.5389L21.8822 55.0662H19.6603L17.7658 48.5741L15.8714 55.0662H13.6495L10.7051 45.5389H12.9134L14.8079 52.739L16.8649 45.5389H18.6645L20.7216 52.739L22.616 45.5389H24.8266Z" fill="white"/>
<path d="M24.334 55.0683L28.2313 45.5411H30.4396L34.3234 55.0683H32.2099L31.5144 53.2847H27.152L26.443 55.0683H24.334ZM27.7978 51.598H30.8777L29.5409 48.1817C29.4732 47.9923 29.4055 47.8006 29.3355 47.433C29.2677 47.8006 29.2 47.9923 29.1164 48.1817L27.7978 51.598Z" fill="white"/>
<path d="M38.9866 45.5389C41.2898 45.5389 43.103 46.2741 43.103 48.7387C43.103 51.2034 41.2898 51.9385 38.9866 51.9385H37.4331V55.0684H35.3896V45.5412H38.9866V45.5389ZM39.0837 47.3361H37.4354V50.1413H39.0837C40.1337 50.1413 41.0188 49.8549 41.0188 48.7387C41.0188 47.609 40.1337 47.3361 39.0837 47.3361Z" fill="white"/>
</svg>
